<?xml version="1.0" encoding="utf-8"?>
<!-- Generator: Adobe Illustrator 21.1.0, SVG Export Plug-In . SVG Version: 6.00 Build 0)  -->
<svg version="1.1" id="Layer_1" xmlns="http://www.w3.org/2000/svg" xmlns:xlink="http://www.w3.org/1999/xlink" x="0px" y="0px"
	 viewBox="0 0 500 500" style="enable-background:new 0 0 500 500;" xml:space="preserve">
<style type="text/css">
.background{fill:#F4F5F0;}
.skin{fill:#a67c52;stroke:#000000;stroke-width:2;stroke-linecap:round;stroke-miterlimit:10;}
.sweater{fill:#f78200;stroke:#000000;stroke-width:2;stroke-linecap:round;stroke-miterlimit:10;}
.eyes{stroke:#000000;stroke-width:2;stroke-miterlimit:10;}
.mouth{fill:none;stroke:#000000;stroke-width:2;stroke-linecap:round;stroke-miterlimit:10;}
.hair{fill:#754c24;}
/face</style><rect x="0" class="background" width="500" height="500"/>
<g>
	<path class="skin" d="M327.9,313.1c0,10.9-8.9,19.8-19.8,19.8H189.5c-10.9,0-19.8-8.9-19.8-19.8v-98.4c0-10.9,8.9-19.8,19.8-19.8
		h118.6c10.9,0,19.8,8.9,19.8,19.8V313.1z"/>
</g>
<rect x="198.4" y="333" class="skin" width="100.8" height="20.3"/>
<g>
	<path class="sweater" d="M145.3,369.2c0,0-20.9,3.6-26.6,17.5c-5.7,14-41.9,82.4-41.9,82.4l-6,33.9c0.4-2.7,66.6,0,66.6,0l23.4-133.8
		H145.3z"/>
</g>
<path class="sweater" d="M335.1,358.4c0,0-1.3-5.1-5.2-5.1s-81.1,0-81.1,0s-77.1,0-81.1,0c-3.9,0-5.2,5.1-5.2,5.1L137.4,503H249h110.7
	L335.1,358.4z"/>
<g>
	<path class="sweater" d="M352.5,369.2c0,0,20.9,3.6,26.6,17.5c5.7,14,41.9,82.4,41.9,82.4l6.2,33.9c-0.4-2.7-67.5,0-67.5,0L337,369.2
		H352.5z"/>
</g>
<path class="skin" d="M284.8,194.4v-21.1c0-4.9-4-8.9-8.9-8.9h-54.4c-4.9,0-8.9,4-8.9,8.9v21.1H284.8z"/>

<g>
	<path d="M273.4,284.4c-14.2-0.1-19.2-5-20.3-19.3c-0.1-1.9-2.3-3.7-3.5-5.6c-1,1.8-2.7,3.5-2.8,5.3c-1,15.2-6.2,19.8-22.8,19.6
		c-11-0.1-17.3-7.2-17.3-20.2c0-5-0.9-7.8-6.8-8.1c-6.8-0.4-13.4-2.1-20.2-3.1c-3.6-0.6-7.5-1.1-6.4-6.2c1.2-5.3,4.8-2.1,7.3-1.6
		c7.4,1.4,14.7,3.1,22,4.8c3.6,0.8,5.5,0.1,6.3-4.1c1.9-9.5,7.5-12.3,15.9-7.3c7.2,4.3,17.2,4.1,21.7,13.3c0.3,0.6,7.3-0.2,8.3-2
		c5.9-10.3,17-10.9,26.2-14.5c6.2-2.4,9.1,3.6,9.8,9.1c0.7,5.2,2.3,6.9,7.7,5.2c7.4-2.2,15.1-3.7,22.7-5.1c1.7-0.3,3.7,1.1,5.6,1.7
		c-1.3,2.1-2.2,5.7-3.9,6.1c-7.8,1.8-15.7,3.2-23.6,3.9c-5.2,0.4-6.3,2.6-6,7.2c0.2,3,0,6.2-1,9
		C289.3,281.5,284.3,284.5,273.4,284.4z M279.4,252.1c0.6,4.4,1.8,8.5,1.7,12.6c-0.1,5.1-2.6,9.5-8.3,9.5c-5.7,0-8.2-4.5-8.4-9.6
		c-0.1-4,1.1-8.1,1.8-12.3c-6.6-1.7-7.8,2.1-7.8,7.7c-0.2,16.2,3.3,20.2,17.1,19.8c9.4-0.3,13.3-8.1,12-22.8
		C286.9,250.7,283.1,251.7,279.4,252.1z M221.7,252.3c-8.6-0.5-8.7-0.4-8.9,6.6c-0.1,2.6-0.1,5.2,0,7.8c0.3,8.9,4.8,13.2,13.7,13.2
		c10.5-0.1,14.6-3.7,14.8-13.4c0.1-2.8,0.1-5.6,0-8.5c-0.2-4.8-2.4-6.9-7.7-5.3c3.1,7.3,5,14.7-2.3,20.3c-1.7,1.3-6.5,1.1-8.2-0.4
		C216.4,266.8,218.2,259.7,221.7,252.3z M286.9,246c-4.5-4.9-10.4-4.7-16.9,0C275.5,246,281,246,286.9,246z"/>
	<path d="M273.4,295.7c-6.5,8.1-15.3,10.5-25.1,9.8c-7.8-0.6-15.1-2.8-19.8-10.1C243.6,301.4,258.3,301.6,273.4,295.7z"/>
</g>

<g>
	<path class="hair" d="M164.7,247.6c1.4,4.4,7.9,5.2,11.5,2.3s4.9-7.7,5.5-12.2c0.6-4.5,0.8-9.3,3-13.3c4.8-8.7,16.5-10.1,26.4-10.1
		c33.4,0.2,69.2,4.9,98.2-11.5l1.1,0.8c12.4,8.9,14.5,26,17.4,41c0.3,1.8,1.4,4.1,3.1,3.7c0.8-0.1,1.4-0.8,1.9-1.4
		c12.9-15.5,9.8-38.7,3-57.7c-8-22.4-21.7-44.7-43.8-53.5c-11.2-4.4-23.4-5-35.4-5.3c-22.7-0.5-47.3,0.4-65,14.6
		c-12.1,9.7-19.1,24.2-25.7,38.2c-3.7,7.9-7.5,16.1-7.7,24.9L164.7,247.6z"/>
	<g>
		<path d="M164,248c2.7,6.2,10.9,5.2,14.6,0.5c7.2-9.1,1.1-23.2,12.8-29.7c9.7-5.4,22.5-3.7,33.1-3.4c11.9,0.3,23.7,0.8,35.6,0.3
			c11-0.5,22.2-1.8,32.8-5c5.1-1.6,9.7-4,14.6-6c1.1-0.4,1.2-0.8,2.2-0.6c1.1,0.2,2.5,2,3.3,2.8c2.1,2,3.8,4.4,5.3,7
			c5.5,9.7,5.9,20.5,8.7,31c2.4,8.9,8.2,0.8,10.5-3.6c9.4-17.8,4-40.1-3.1-57.7c-7.3-18.2-18.8-36.5-36.7-45.9
			c-9.9-5.2-21-6.9-32.1-7.5c-11.5-0.6-23.2-0.8-34.7,0.3c-21.2,2-39.8,9.9-52.2,27.8c-7,10-12.5,21.6-17.1,32.9
			c-2.9,7.1-4.6,13.9-3.4,21.4c1.9,11.8,3.8,23.6,5.7,35.4c0.2,1,1.6,0.5,1.4-0.4c-2.1-12.8-4.9-25.7-6.2-38.5
			c-0.6-6.3,2.1-13.1,4.5-18.8c2.9-6.8,6.2-13.6,9.7-20.1c7.7-14.3,17.8-26.5,33.2-32.6c13.8-5.5,28.9-6.3,43.6-6.2
			c16.2,0.1,33.5,0.3,48.1,8.4c12.7,7.1,22,18.9,28.8,31.5c6.8,12.7,12.1,27,13.6,41.5c0.8,8.1,0.4,16.5-2.6,24.1
			c-1.1,2.9-5.9,13.5-9.2,8.7c-1.8-2.5-1.6-8-2.2-11c-2.5-12.6-6.3-24.3-16.9-32.2c-0.2-0.2-0.5-0.1-0.8,0
			c-27.3,15.1-59.4,12.2-89.5,11.6c-10.3-0.2-23.8-1.4-32.1,6.1c-4.2,3.8-5.3,9.1-6,14.5c-0.6,4.1-0.8,8.6-3.1,12.3
			c-2.8,4.3-10.2,6.8-12.8,0.7C164.9,246.3,163.6,247.1,164,248z"/>
	</g>
</g>

</svg>


<?xml version="1.0" encoding="utf-8"?>
<!-- Generator: Adobe Illustrator 21.1.0, SVG Export Plug-In . SVG Version: 6.00 Build 0)  -->
<svg version="1.1" id="Layer_1" xmlns="http://www.w3.org/2000/svg" xmlns:xlink="http://www.w3.org/1999/xlink" x="0px" y="0px"
	 viewBox="0 0 500 500" style="enable-background:new 0 0 500 500;" xml:space="preserve">
<style type="text/css">
.background{fill:#F4F5F0;}
.skin{fill:#a67c52;stroke:#000000;stroke-width:2;stroke-linecap:round;stroke-miterlimit:10;}
.sweater{fill:#f78200;stroke:#000000;stroke-width:2;stroke-linecap:round;stroke-miterlimit:10;}
.eyes{stroke:#000000;stroke-width:2;stroke-miterlimit:10;}
.mouth{fill:none;stroke:#000000;stroke-width:2;stroke-linecap:round;stroke-miterlimit:10;}
.hair{fill:#754c24;}
/face</style><rect x="0" class="background" width="500" height="500"/>
<g>
	<path class="skin" d="M327.9,313.1c0,10.9-8.9,19.8-19.8,19.8H189.5c-10.9,0-19.8-8.9-19.8-19.8v-98.4c0-10.9,8.9-19.8,19.8-19.8
		h118.6c10.9,0,19.8,8.9,19.8,19.8V313.1z"/>
</g>
<rect x="198.4" y="333" class="skin" width="100.8" height="20.3"/>
<g>
	<path class="sweater" d="M145.3,369.2c0,0-20.9,3.6-26.6,17.5c-5.7,14-41.9,82.4-41.9,82.4l-6,33.9c0.4-2.7,66.6,0,66.6,0l23.4-133.8
		H145.3z"/>
</g>
<path class="sweater" d="M335.1,358.4c0,0-1.3-5.1-5.2-5.1s-81.1,0-81.1,0s-77.1,0-81.1,0c-3.9,0-5.2,5.1-5.2,5.1L137.4,503H249h110.7
	L335.1,358.4z"/>
<g>
	<path class="sweater" d="M352.5,369.2c0,0,20.9,3.6,26.6,17.5c5.7,14,41.9,82.4,41.9,82.4l6.2,33.9c-0.4-2.7-67.5,0-67.5,0L337,369.2
		H352.5z"/>
</g>
<path class="skin" d="M284.8,194.4v-21.1c0-4.9-4-8.9-8.9-8.9h-54.4c-4.9,0-8.9,4-8.9,8.9v21.1H284.8z"/>

<g>
	<path d="M273.4,284.4c-14.2-0.1-19.2-5-20.3-19.3c-0.1-1.9-2.3-3.7-3.5-5.6c-1,1.8-2.7,3.5-2.8,5.3c-1,15.2-6.2,19.8-22.8,19.6
		c-11-0.1-17.3-7.2-17.3-20.2c0-5-0.9-7.8-6.8-8.1c-6.8-0.4-13.4-2.1-20.2-3.1c-3.6-0.6-7.5-1.1-6.4-6.2c1.2-5.3,4.8-2.1,7.3-1.6
		c7.4,1.4,14.7,3.1,22,4.8c3.6,0.8,5.5,0.1,6.3-4.1c1.9-9.5,7.5-12.3,15.9-7.3c7.2,4.3,17.2,4.1,21.7,13.3c0.3,0.6,7.3-0.2,8.3-2
		c5.9-10.3,17-10.9,26.2-14.5c6.2-2.4,9.1,3.6,9.8,9.1c0.7,5.2,2.3,6.9,7.7,5.2c7.4-2.2,15.1-3.7,22.7-5.1c1.7-0.3,3.7,1.1,5.6,1.7
		c-1.3,2.1-2.2,5.7-3.9,6.1c-7.8,1.8-15.7,3.2-23.6,3.9c-5.2,0.4-6.3,2.6-6,7.2c0.2,3,0,6.2-1,9
		C289.3,281.5,284.3,284.5,273.4,284.4z M279.4,252.1c0.6,4.4,1.8,8.5,1.7,12.6c-0.1,5.1-2.6,9.5-8.3,9.5c-5.7,0-8.2-4.5-8.4-9.6
		c-0.1-4,1.1-8.1,1.8-12.3c-6.6-1.7-7.8,2.1-7.8,7.7c-0.2,16.2,3.3,20.2,17.1,19.8c9.4-0.3,13.3-8.1,12-22.8
		C286.9,250.7,283.1,251.7,279.4,252.1z M221.7,252.3c-8.6-0.5-8.7-0.4-8.9,6.6c-0.1,2.6-0.1,5.2,0,7.8c0.3,8.9,4.8,13.2,13.7,13.2
		c10.5-0.1,14.6-3.7,14.8-13.4c0.1-2.8,0.1-5.6,0-8.5c-0.2-4.8-2.4-6.9-7.7-5.3c3.1,7.3,5,14.7-2.3,20.3c-1.7,1.3-6.5,1.1-8.2-0.4
		C216.4,266.8,218.2,259.7,221.7,252.3z M286.9,246c-4.5-4.9-10.4-4.7-16.9,0C275.5,246,281,246,286.9,246z"/>
	<path d="M273.4,295.7c-6.5,8.1-15.3,10.5-25.1,9.8c-7.8-0.6-15.1-2.8-19.8-10.1C243.6,301.4,258.3,301.6,273.4,295.7z"/>
</g>

<g>
	<path class="hair" d="M164.7,247.6c1.4,4.4,7.9,5.2,11.5,2.3s4.9-7.7,5.5-12.2c0.6-4.5,0.8-9.3,3-13.3c4.8-8.7,16.5-10.1,26.4-10.1
		c33.4,0.2,69.2,4.9,98.2-11.5l1.1,0.8c12.4,8.9,14.5,26,17.4,41c0.3,1.8,1.4,4.1,3.1,3.7c0.8-0.1,1.4-0.8,1.9-1.4
		c12.9-15.5,9.8-38.7,3-57.7c-8-22.4-21.7-44.7-43.8-53.5c-11.2-4.4-23.4-5-35.4-5.3c-22.7-0.5-47.3,0.4-65,14.6
		c-12.1,9.7-19.1,24.2-25.7,38.2c-3.7,7.9-7.5,16.1-7.7,24.9L164.7,247.6z"/>
	<g>
		<path d="M164,248c2.7,6.2,10.9,5.2,14.6,0.5c7.2-9.1,1.1-23.2,12.8-29.7c9.7-5.4,22.5-3.7,33.1-3.4c11.9,0.3,23.7,0.8,35.6,0.3
			c11-0.5,22.2-1.8,32.8-5c5.1-1.6,9.7-4,14.6-6c1.1-0.4,1.2-0.8,2.2-0.6c1.1,0.2,2.5,2,3.3,2.8c2.1,2,3.8,4.4,5.3,7
			c5.5,9.7,5.9,20.5,8.7,31c2.4,8.9,8.2,0.8,10.5-3.6c9.4-17.8,4-40.1-3.1-57.7c-7.3-18.2-18.8-36.5-36.7-45.9
			c-9.9-5.2-21-6.9-32.1-7.5c-11.5-0.6-23.2-0.8-34.7,0.3c-21.2,2-39.8,9.9-52.2,27.8c-7,10-12.5,21.6-17.1,32.9
			c-2.9,7.1-4.6,13.9-3.4,21.4c1.9,11.8,3.8,23.6,5.7,35.4c0.2,1,1.6,0.5,1.4-0.4c-2.1-12.8-4.9-25.7-6.2-38.5
			c-0.6-6.3,2.1-13.1,4.5-18.8c2.9-6.8,6.2-13.6,9.7-20.1c7.7-14.3,17.8-26.5,33.2-32.6c13.8-5.5,28.9-6.3,43.6-6.2
			c16.2,0.1,33.5,0.3,48.1,8.4c12.7,7.1,22,18.9,28.8,31.5c6.8,12.7,12.1,27,13.6,41.5c0.8,8.1,0.4,16.5-2.6,24.1
			c-1.1,2.9-5.9,13.5-9.2,8.7c-1.8-2.5-1.6-8-2.2-11c-2.5-12.6-6.3-24.3-16.9-32.2c-0.2-0.2-0.5-0.1-0.8,0
			c-27.3,15.1-59.4,12.2-89.5,11.6c-10.3-0.2-23.8-1.4-32.1,6.1c-4.2,3.8-5.3,9.1-6,14.5c-0.6,4.1-0.8,8.6-3.1,12.3
			c-2.8,4.3-10.2,6.8-12.8,0.7C164.9,246.3,163.6,247.1,164,248z"/>
	</g>
</g>

</svg>


