<?xml version="1.0" encoding="utf-8"?>
<!-- Generator: Adobe Illustrator 21.1.0, SVG Export Plug-In . SVG Version: 6.00 Build 0)  -->
<svg version="1.1" id="Layer_1" xmlns="http://www.w3.org/2000/svg" xmlns:xlink="http://www.w3.org/1999/xlink" x="0px" y="0px"
	 viewBox="0 0 500 500" style="enable-background:new 0 0 500 500;" xml:space="preserve">
<style type="text/css">
.background{fill:#F4F5F0;}
.skin{fill:#a67c52;stroke:#000000;stroke-width:2;stroke-linecap:round;stroke-miterlimit:10;}
.sweater{fill:#223a5e;stroke:#000000;stroke-width:2;stroke-linecap:round;stroke-miterlimit:10;}
.eyes{stroke:#000000;stroke-width:2;stroke-miterlimit:10;}
.mouth{fill:none;stroke:#000000;stroke-width:2;stroke-linecap:round;stroke-miterlimit:10;}
.hair{fill:#a54632;}
/face</style><rect x="0" class="background" width="500" height="500"/>
<g>
	<path class="skin" d="M327.9,313.1c0,10.9-8.9,19.8-19.8,19.8H189.5c-10.9,0-19.8-8.9-19.8-19.8v-98.4c0-10.9,8.9-19.8,19.8-19.8
		h118.6c10.9,0,19.8,8.9,19.8,19.8V313.1z"/>
</g>
<rect x="198.4" y="333" class="skin" width="100.8" height="20.3"/>
<g>
	<path class="sweater" d="M145.3,369.2c0,0-20.9,3.6-26.6,17.5c-5.7,14-41.9,82.4-41.9,82.4l-6,33.9c0.4-2.7,66.6,0,66.6,0l23.4-133.8
		H145.3z"/>
</g>
<path class="sweater" d="M335.1,358.4c0,0-1.3-5.1-5.2-5.1s-81.1,0-81.1,0s-77.1,0-81.1,0c-3.9,0-5.2,5.1-5.2,5.1L137.4,503H249h110.7
	L335.1,358.4z"/>
<g>
	<path class="sweater" d="M352.5,369.2c0,0,20.9,3.6,26.6,17.5c5.7,14,41.9,82.4,41.9,82.4l6.2,33.9c-0.4-2.7-67.5,0-67.5,0L337,369.2
		H352.5z"/>
</g>
<path class="skin" d="M284.8,194.4v-21.1c0-4.9-4-8.9-8.9-8.9h-54.4c-4.9,0-8.9,4-8.9,8.9v21.1H284.8z"/>
<g>
	<path d="M219.8,260.2c0.2-6.6,4-11.3,9.1-11.3c4.9,0,9.4,5.9,9.2,12.1c-0.2,6.3-4.7,11.7-9.7,11.5
		C223.3,272.3,219.5,266.9,219.8,260.2z M228.6,262.5c1.7-2.7,3.5-4.2,3.3-5.5c-0.3-1.7-2.1-3.1-3.3-4.6c-1.1,1.4-2.8,2.8-3,4.3
		C225.4,258.1,227,259.7,228.6,262.5z"/>
	<path d="M279.9,261c-0.1,6.7-4.3,11.9-9.4,11.6c-4.7-0.2-8.9-5.7-9-11.8c-0.1-6.3,4.4-12,9.4-12C276,248.9,280,254.3,279.9,261z
		 M275.5,257c-2.1-2-3.5-3.3-4.9-4.6c-1.1,1.4-3,2.8-3,4.3c0,1.4,1.7,3.5,3.1,3.9C271.8,260.8,273.4,258.7,275.5,257z"/>
	<path d="M273.8,294c-5.9,9.3-14.9,11-24.7,10.7c-8.7-0.3-16.7-2.4-22-10.8C242.7,300.6,258.1,300.7,273.8,294z"/>
	<path d="M242.5,233.9c-0.8,1.6-1.2,4.4-2.6,5.3c-4.1,2.3-8.5,4.4-13,5.5c-5.6,1.4-12.1,0.3-14.1,8.4c-1.7-8.4,0.9-11.4,8-12.8
		C227.7,238.9,234.3,236.3,242.5,233.9z"/>
	<path d="M288.5,251.2c-2.2-5.8-6.8-4.9-11.4-5.4c-5.5-0.6-11-2.6-16.3-4.7c-1.3-0.5-1.6-3.4-2.3-5.2c1.6,0.3,3.6,0.2,4.8,1.1
		c5.6,4.2,12,3.6,18.3,3.8C287.7,241,290,244.1,288.5,251.2z"/>
	<path d="M300.1,272.4c-3.8-3-7.6-6-11.4-9.1c3.2-6,9.7-6.7,15.1-1.2c-1.8,0.5-3.4,0.9-4.9,1.3c0.7,2.6,1.5,5.2,2.2,7.9
		C301.2,271.5,300.7,271.8,300.1,272.4z"/>
	<path d="M198.3,271.4c1-2.7,2-5.5,3.1-8.5c-1.8-0.2-3.3-0.4-5.2-0.6c4.5-5.3,10.1-4.9,14.8,0.8c-3.8,3-7.6,6.1-11.4,9.1
		C199.2,271.9,198.7,271.7,198.3,271.4z"/>
</g>
<g>
	<path class="hair" d="M163.9,306.7c0.6,1.5,1.1,3,1.7,4.4c2.4,0.7,5.1,0.2,7.2-1.2c-6.8-12.7-6.9-28.7-0.5-41.6
		c8.8-17.5,27.5-27.4,45-36.1c22.1-11,44.3-22,66.4-33c2.3-1.1,4.7-2.3,7.2-2.3c2.1,0,4.2,0.9,6.1,1.8c15.1,7.7,25,24.7,24.1,41.7
		c-0.6,12.7-6.7,25.2-4.6,37.8c2.9-0.3,5.9-0.5,8.8-0.8c0.7,5.1,1.4,10.3,2.2,15.4c20.4-32.1,28.1-75.4,8.6-108.1
		c-5.5-9.3-13.1-17.6-16.1-28c13.6,1.6,27.6,2.5,40.8-0.9c13.3-3.4,25.9-11.7,31.5-24.2c0.5-1.1,0.9-2.2,0.8-3.4
		c-0.3-2.8-3.5-4.1-6.1-5.1c-10.8-4.4-19.3-13-27.2-21.6s-15.9-17.5-26.3-22.9c-10.4-5.3-24-6.3-33.2,1
		c-12.5,9.8-11.5,28.7-9.3,44.4l0.3,0.1c0.7,5.4-4.2,10.3-9.5,11.7s-10.9,0.4-16.3-0.4c-37.4-5-76.7,6.8-105.1,31.6
		c-6.9,6-13.3,12.9-17.1,21.2c-5.5,12.2-4.9,26.2-4.2,39.6c0.6,10.7,1.1,21.5,3.3,32c3.9,18.8,12.9,36.4,25.9,50.5"/>
	<g>
		<path d="M162.8,307c0.9,2.3,1,4.5,3.2,5.4c2.4,0.9,5.3-0.3,7.3-1.5c0.6-0.3,0.7-1,0.4-1.5c-8.4-16.7-5.9-36.6,6.4-50.7
			c10.5-12.1,25.4-19.3,39.5-26.4c18.1-9,36.1-17.9,54.2-26.9c3.9-2,7.8-4.1,11.9-5.9c5.9-2.6,10.8-0.2,15.8,3.2
			c6.6,4.6,11.7,11.2,15,18.5c4.3,9.8,4.2,19.8,2,30.1c-1.9,9.1-4.3,17.9-3,27.2c0.1,0.4,0.6,0.9,1.1,0.8c1.7-0.1,3.6-0.5,5.3-0.5
			c2.7,0.1,2.3,0,3,2.7c0.9,3.7,1.1,7.8,1.6,11.5c0.1,1,1.6,1,2.1,0.3c12.9-20.6,20.9-44.9,20-69.3c-0.4-11.3-2.9-22.6-7.6-32.9
			c-5.6-12.1-15.6-21.8-19.6-34.7c-0.4,0.5-0.7,0.9-1.1,1.4c19,2.2,39.4,3,56.3-7.2c6.4-3.9,12-9.2,15.6-15.7
			c3.7-6.7,1.9-9.9-4.7-12.8c-18.7-8.2-28.9-26.7-44.6-38.8c-11.8-9.1-29.9-14.7-42.9-4.6c-13.6,10.6-11.9,30.6-9.8,45.7
			c0.1,0.4,0.4,0.7,0.8,0.8c-0.8-0.2-1.3,3.5-2,4.6c-0.7,1.1-1.5,1.9-2.6,2.7c-2.8,2.1-6.1,2.8-9.6,3c-5.2,0.2-10.5-1.1-15.7-1.6
			c-9.9-0.9-19.9-0.7-29.8,0.6c-18.3,2.4-36.2,8.6-52.1,18c-15.2,9-31.6,21.7-37.8,38.8c-3.4,9.4-3.6,19.7-3.3,29.6
			c0.4,10.6,0.9,21.3,2.4,31.9c3.1,21.9,12.7,42.1,27.5,58.5c1,1.1,2.6-0.5,1.6-1.6c-13.6-15.1-22.8-33.7-26.3-53.8
			c-2-11.5-2.5-23.4-2.9-35c-0.4-10.8-0.1-22,4.4-32c7.9-17.5,26.8-30.4,43.4-38.8c17.6-8.9,37.2-14,56.9-14.6
			c5.4-0.2,10.8,0,16.1,0.5c5.8,0.6,11.7,2,17.5,1.5c7.2-0.6,14.5-5.5,14.2-13.4c0-0.5-0.3-0.9-0.8-1.1c-0.1,0-0.6-8.7-0.6-9.8
			c-0.2-3.4-0.3-6.8-0.1-10.2c0.5-7.4,2.4-15,7.6-20.4c11.8-12.4,30.8-6.8,42.6,2.2c12,9.2,20.6,22.2,32.5,31.5
			c2.8,2.2,5.8,4.2,9,5.9c1.3,0.7,2.6,1.2,3.9,1.8c0.6,0.3,1.6,0.6,2.1,0.9c1.8,1.3,2.4,5.8,1.6,7.9c-2.2,6.4-9.6,12.2-15.2,15.6
			c-16.6,10-36.7,9.1-55.2,6.9c-0.7-0.1-1.3,0.8-1.1,1.4c3.5,11.1,11.4,19.6,17,29.6c6.2,10.9,9.5,23.3,10.1,35.8
			c1.3,24.6-6.6,49.1-19.6,69.8c0.7,0.1,1.4,0.2,2.1,0.3c-0.7-5.1-1.4-10.3-2.2-15.4c-0.1-0.4-0.6-0.9-1.1-0.8
			c-1.5,0.1-2.9,0.3-4.4,0.4c-1.8,0.2-2.1,0.6-3.2-0.8c-1.3-1.8-0.5-5.8-0.3-7.9c0.6-6,2.3-11.8,3.5-17.7c1.7-8.5,1.9-16.8-0.7-25.1
			c-2.5-7.8-6.9-15-13-20.5c-5-4.6-12.4-10.3-19.7-8.3c-4.6,1.3-9,4.2-13.2,6.3c-5.2,2.6-10.5,5.2-15.7,7.8
			c-10.8,5.4-21.6,10.7-32.3,16.1c-16.6,8.2-34.8,16-47.4,30.1c-13.3,14.9-16.3,36.1-7.2,54c0.1-0.5,0.3-1,0.4-1.5
			c-1.9,1.4-3.9,1.6-6.1,0.4c-0.4-1-0.8-2-1.1-3C164.5,305.1,162.3,305.6,162.8,307L162.8,307z"/>
	</g>
</g>
</svg>

